<svg width="24" height="23" viewBox="0 0 24 23" fill="none" xmlns="http://www.w3.org/2000/svg">
<path d="M18.9945 18.3172C17.4665 19.4038 15.0428 20.2576 12.1186 20.2576C6.98134 20.2576 3.26674 16.3768 3.26674 11.5129C3.26674 6.5973 7.06037 2.74241 12.382 2.74241C17.5456 2.74241 20.7333 6.33858 20.7333 10.0382C20.7333 12.4443 19.8375 14.0484 18.1515 14.0484C17.1504 14.0484 16.5708 13.5051 16.5708 12.5219C16.5708 12.2632 16.6235 11.7975 16.6762 11.4353L17.5719 6.2351H14.3052L14.0944 7.34758C13.4094 6.39033 12.4083 5.87289 11.0384 5.87289C8.06147 5.87289 6.05928 8.51181 6.05928 11.7975C6.05928 14.7728 7.85071 16.7649 10.5379 16.7649C12.1186 16.7649 13.4094 16.144 14.3315 14.9798C14.8584 15.9629 15.9385 16.7649 17.9934 16.7649C21.3919 16.7649 24 13.9449 24 9.70191C24 4.50169 19.0472 0 12.382 0C5.34797 0 0 5.09674 0 11.5129C0 17.9033 5.24259 23 12.1186 23C14.7003 23 17.0714 22.3532 18.9945 21.2666V18.3172ZM9.51043 11.6164C9.51043 10.0641 10.2217 8.6153 11.6707 8.6153C12.8299 8.6153 13.3831 9.52081 13.3831 11.099C13.3831 12.7548 12.5137 14.0484 11.3019 14.0484C10.1954 14.0484 9.51043 13.0135 9.51043 11.6164Z" fill="currentColor"/>
</svg>
