<svg xmlns="http://www.w3.org/2000/svg" fill="none" viewBox="1 3 30 27">
  <path d="M16 28.0416C22.7586 28.0416 30 24.6758 30 16.0208C30 7.36582 22.7586 4 16 4C9.24138 4 2 7.36582 2 16.0208C2 18.0014 2.37924 19.7051 3.04513 21.1547C3.46021 22.0585 3.69303 23.055 3.50918 24.0316L3.00286 26.7212C2.7526 28.0506 3.9219 29.2154 5.25671 28.9661L11.4503 27.8094C11.9371 27.7185 12.4363 27.7264 12.9254 27.8037C13.9434 27.9645 14.9773 28.0416 16 28.0416Z" stroke="currentColor" stroke-width="2" stroke-linecap="round" stroke-linejoin="round"/>
  <path d="M11 15.75C11 16.5783 10.3284 17.25 9.5 17.25C8.67158 17.25 8 16.5783 8 15.75C8 14.9217 8.67158 14.25 9.5 14.25C10.3284 14.25 11 14.9217 11 15.75Z" stroke="currentColor" stroke-linecap="round" stroke-linejoin="round"/>
  <path d="M18 15.75C18 16.5783 17.3283 17.25 16.5 17.25C15.6717 17.25 15 16.5783 15 15.75C15 14.9217 15.6717 14.25 16.5 14.25C17.3283 14.25 18 14.9217 18 15.75Z" stroke="currentColor" stroke-linecap="round" stroke-linejoin="round"/>
  <path d="M25 15.75C25 16.5783 24.3283 17.25 23.5 17.25C22.6717 17.25 22 16.5783 22 15.75C22 14.9217 22.6717 14.25 23.5 14.25C24.3283 14.25 25 14.9217 25 15.75Z" stroke="currentColor" stroke-linecap="round" stroke-linejoin="round"/>
</svg>