<svg xmlns="http://www.w3.org/2000/svg" fill="none" viewBox="0.43 0 15.57 14">
<path d="M8.9258 0C12.8339 0 16 3.15 16 7C16 10.85 12.8339 14 8.9258 14C6.67585 14 4.68172 12.9519 3.3864 11.3205C3.16096 11.0366 3.23008 10.629 3.51544 10.4054C3.84203 10.1495 4.31632 10.2368 4.58133 10.5561C5.61676 11.8034 7.17757 12.6 8.93286 12.6C10.4323 12.6 11.8704 12.01 12.9306 10.9598C13.9909 9.90959 14.5866 8.48521 14.5866 7C14.5866 5.51479 13.9909 4.09041 12.9306 3.0402C11.8704 1.99 10.4323 1.4 8.93286 1.4C6.04947 1.4 3.67491 3.542 3.32862 6.3H4.54858C4.81674 6.3 4.95018 6.62497 4.75941 6.81342L3.33976 8.21583C2.94987 8.60098 2.32263 8.60056 1.93326 8.21489L0.518064 6.81314C0.327684 6.62457 0.461219 6.3 0.729181 6.3H1.90106C2.25442 2.765 5.26502 0 8.9258 0ZM11.0177 5.768C11.371 5.775 11.6608 6.055 11.6608 6.412V9.639C11.6608 9.989 11.371 10.283 11.0106 10.283H7.10247C6.74205 10.283 6.4523 9.989 6.4523 9.639V6.412C6.4523 6.055 6.74205 5.775 7.09541 5.768V5.061C7.09541 3.99 7.9788 3.122 9.053 3.122C10.1343 3.122 11.0177 3.99 11.0177 5.061V5.768ZM9.053 4.102C8.52297 4.102 8.08481 4.529 8.08481 5.061V5.768H10.0283V5.061C10.0283 4.529 9.59011 4.102 9.053 4.102Z" fill="currentColor"/>
</svg>