<svg width="76" height="34" viewBox="0 0 76 34" fill="none" xmlns="http://www.w3.org/2000/svg">
  <path d="M0.199837 26.7078C0.132719 26.6381 0.08045 26.5554 0.0462105 26.4647C0.0119711 26.3741 -0.00352283 26.2774 0.000671226 26.1806V9.63723C0.000671226 9.17625 0.242287 8.94544 0.725518 8.9448H1.88604C2.36863 8.9448 2.61025 9.17561 2.61089 9.63723V11.1268C3.20685 10.2821 4.00456 9.60091 4.93097 9.14552C5.83372 8.70082 6.82652 8.47078 7.83228 8.47326C9.23346 8.47326 10.4479 8.78858 11.4757 9.41923C12.502 10.0498 13.3165 10.9744 13.8139 12.0737C14.3267 10.9571 15.1677 10.0245 16.224 9.40098C17.2613 8.78637 18.4454 8.46573 19.6501 8.47326C21.7049 8.47326 23.3305 9.12792 24.5267 10.4372C25.723 11.7465 26.3211 13.5162 26.3211 15.7461V26.1806C26.3303 26.3731 26.2656 26.5618 26.1402 26.7078C26.0689 26.7784 25.9834 26.8328 25.8894 26.8674C25.7955 26.902 25.6952 26.916 25.5953 26.9085H24.3266C24.0853 26.9085 23.9034 26.8413 23.7837 26.7078C23.6576 26.5621 23.5925 26.3733 23.6018 26.1806V16.0362C23.6018 14.4849 23.2153 13.2729 22.4422 12.4002C21.6692 11.5276 20.6417 11.0909 19.3599 11.0903C18.5095 11.0849 17.6745 11.3177 16.9489 11.7625C16.2096 12.2138 15.6029 12.8537 15.1909 13.617C14.7572 14.4009 14.5326 15.2838 14.5388 16.1802V26.1806C14.5476 26.3732 14.4825 26.5619 14.3569 26.7078C14.2859 26.7783 14.2008 26.8326 14.1071 26.8672C14.0135 26.9019 13.9135 26.916 13.8139 26.9085H12.5443C12.4455 26.9154 12.3464 26.901 12.2536 26.8664C12.1608 26.8318 12.0764 26.7777 12.0061 26.7078C11.8797 26.5623 11.8145 26.3733 11.8242 26.1806V16.0362C11.8242 14.4849 11.4374 13.2729 10.6637 12.4002C9.89 11.5276 8.86289 11.0909 7.58236 11.0903C6.17799 11.0903 5.01811 11.5705 4.10271 12.5308C3.18732 13.4912 2.72579 14.8171 2.71813 16.5087V26.1806C2.72757 26.3729 2.66315 26.5616 2.53811 26.7078C2.47273 26.776 2.39347 26.8292 2.30572 26.8638C2.21798 26.8984 2.12382 26.9137 2.02967 26.9085H0.725518C0.628882 26.9128 0.532399 26.8972 0.441999 26.8626C0.351599 26.8281 0.26919 26.7754 0.199837 26.7078Z" fill="currentColor"/>
  <path d="M48.8709 17.956C48.8709 19.6683 48.4879 21.226 47.7008 22.631C47.6826 22.6704 47.6625 22.7088 47.6443 22.7463C47.3971 23.1889 47.1085 23.6069 46.7825 23.9948C46.2002 24.7459 45.4927 25.3902 44.6913 25.8992C44.5563 25.9952 44.4213 26.0913 44.2891 26.169C43.9059 26.4061 43.5009 26.6058 43.0798 26.7654C41.9739 27.2353 40.7838 27.4726 39.5829 27.4627C37.9499 27.4685 36.3451 27.0362 34.9349 26.2104C33.5247 25.3847 32.3603 24.1956 31.5626 22.7665C30.7687 21.2912 30.3531 19.641 30.3531 17.9646C30.3531 16.2882 30.7687 14.638 31.5626 13.1627C32.3424 11.7315 33.4964 10.5405 34.9006 9.7179C36.3201 8.88485 37.9383 8.45338 39.5829 8.46942C40.8487 8.46942 42.0188 8.6807 43.0932 9.14168C42.316 9.74252 41.6308 10.4544 41.0594 11.2545C40.5758 11.1385 40.0801 11.0817 39.5829 11.0855C38.4224 11.0839 37.2832 11.3981 36.2866 11.9946C35.2901 12.5911 34.4735 13.4475 33.9239 14.4727C33.3429 15.5329 33.046 16.7261 33.0621 17.9358C33.0461 19.1519 33.3429 20.3516 33.9239 21.4191C34.4582 22.4388 35.2696 23.2859 36.2641 23.8622C37.2676 24.4611 38.4151 24.7739 39.5829 24.7669C40.067 24.7691 40.5495 24.7107 41.0192 24.5931C41.5872 24.5001 42.1338 24.3049 42.6326 24.0169C42.7402 23.9767 42.843 23.9245 42.939 23.8613C43.6403 23.4625 44.2485 22.918 44.7229 22.2642C44.942 22.0021 45.1345 21.7186 45.2974 21.4181C45.4295 21.1866 45.5262 20.9571 45.6421 20.7055C45.9766 19.8205 46.1454 18.8812 46.14 17.9348C46.1455 16.995 45.9767 16.0623 45.6421 15.1843C46.0327 14.4389 46.6243 13.8186 47.3494 13.3942C47.4601 13.3283 47.5753 13.2702 47.6941 13.2204C48.4879 14.6648 48.8709 16.2417 48.8709 17.956Z" fill="currentColor"/>
  <path d="M57.8869 13.1637C57.106 11.7333 55.9523 10.5426 54.549 9.71886C53.1162 8.88339 51.4847 8.45201 49.8275 8.47038C48.6367 8.45301 47.4551 8.68185 46.3564 9.14264C45.9308 9.29877 45.5194 9.49156 45.127 9.71886C44.9837 9.80124 44.849 9.89776 44.7248 10.007C43.9322 10.4978 43.236 11.1302 42.6709 11.873C42.3304 12.2702 42.0335 12.7029 41.7852 13.1637C41.767 13.182 41.767 13.2021 41.7459 13.2213C40.9605 14.6739 40.558 16.3036 40.5768 17.956C40.5582 19.593 40.9535 21.208 41.7258 22.6502C41.8574 22.5943 41.9853 22.5302 42.1088 22.4582C42.8261 22.0472 43.4119 21.4399 43.7979 20.7074C43.4621 19.8227 43.2923 18.8834 43.2971 17.9368C43.2921 16.9967 43.4619 16.0639 43.7979 15.1862C43.9001 14.9427 44.0151 14.7049 44.1426 14.4737C44.3045 14.1719 44.4971 13.8878 44.7171 13.6256C45.1973 12.9716 45.8044 12.4218 46.502 12.0093C46.5874 11.9571 46.6771 11.9121 46.7701 11.8749C47.2665 11.5747 47.8127 11.3665 48.3825 11.2603C48.8522 11.1426 49.3347 11.0842 49.8188 11.0864C51.0024 11.0741 52.1658 11.3938 53.1778 12.0093C54.1694 12.5988 54.9793 13.4516 55.518 14.4737C56.0984 15.5341 56.3952 16.7271 56.3798 17.9368C56.3953 19.1528 56.0986 20.3523 55.518 21.42C54.9831 22.4393 54.1719 23.2863 53.1778 23.8632C52.1635 24.4629 51.0059 24.7752 49.8284 24.7669C49.3443 24.7691 48.8618 24.7107 48.3921 24.5931C47.8064 25.4188 47.1009 26.1519 46.299 26.7683C47.4166 27.2364 48.6173 27.4726 49.8284 27.4627C51.5376 27.4627 53.1099 27.0382 54.5107 26.1719C55.9118 25.3463 57.0711 24.1647 57.8716 22.7463C58.698 21.3057 59.1011 19.7067 59.1011 17.956C59.1141 16.2804 58.6959 14.6298 57.8869 13.1637Z" fill="currentColor"/>
  <path d="M60.2463 33.7982C60.182 33.7343 60.1312 33.6579 60.0972 33.5737C60.0631 33.4895 60.0464 33.3993 60.0481 33.3084V32.252C60.0467 32.1609 60.0635 32.0704 60.0976 31.986C60.1317 31.9015 60.1823 31.8247 60.2465 31.7603C60.3107 31.6958 60.3872 31.6449 60.4713 31.6106C60.5555 31.5763 60.6457 31.5593 60.7365 31.5606C61.8964 31.5606 62.718 31.2404 63.2012 30.6002C63.6844 29.9599 63.9261 28.8872 63.9261 27.382V9.63723C63.9261 9.17625 64.168 8.94545 64.6519 8.94481H65.8842C66.3681 8.94481 66.61 9.17561 66.61 9.63723V27.308C66.61 29.465 66.1265 31.1194 65.1594 32.2712C64.1923 33.423 62.7419 33.9993 60.8084 33.9999H60.7365C60.6454 34.0015 60.555 33.9844 60.4707 33.9497C60.3864 33.915 60.31 33.8635 60.2463 33.7982ZM63.7815 0.569416C63.9734 0.383241 64.2006 0.237457 64.4495 0.140643C64.6985 0.0438284 64.9643 -0.0020596 65.2312 0.00567921C65.8351 0.00567921 66.3307 0.193591 66.7182 0.569416C66.9068 0.749224 67.0558 0.966582 67.1558 1.20755C67.2557 1.44851 67.3043 1.70776 67.2985 1.96868C67.3033 2.2323 67.2543 2.49413 67.1545 2.73807C67.0547 2.98201 66.9063 3.20289 66.7182 3.38714C66.3314 3.77321 65.8357 3.96625 65.2312 3.96625C64.9627 3.97359 64.6956 3.92575 64.4463 3.82566C64.197 3.72557 63.9707 3.57535 63.7815 3.38426C63.5932 3.20015 63.4446 2.97929 63.3448 2.73532C63.245 2.49135 63.1961 2.22945 63.2012 1.96579C63.1949 1.70453 63.2432 1.44484 63.3432 1.20349C63.4431 0.962138 63.5924 0.744495 63.7815 0.564615V0.569416Z" fill="currentColor"/>
  <path d="M72.4825 0.564615C72.6745 0.378277 72.9018 0.232396 73.151 0.135576C73.4001 0.038755 73.6661 -0.00704494 73.9332 0.000877284C74.537 0.000877284 75.0327 0.18879 75.4202 0.564615C75.6087 0.74447 75.7576 0.961858 75.8573 1.20283C75.9571 1.4438 76.0055 1.70303 75.9995 1.96387C76.0045 2.22744 75.9557 2.48925 75.8561 2.73319C75.7565 2.97713 75.6081 3.19804 75.4202 3.38234C75.0327 3.77161 74.537 3.96625 73.9332 3.96625C73.6646 3.97378 73.3972 3.92603 73.1477 3.82593C72.8982 3.72583 72.6718 3.57552 72.4825 3.38426C72.2944 3.2001 72.146 2.97921 72.0463 2.73524C71.9467 2.49126 71.898 2.22939 71.9032 1.96579C71.8967 1.70459 71.9449 1.44493 72.0447 1.20357C72.1445 0.962216 72.2936 0.744543 72.4825 0.564615ZM72.8272 26.7078C72.7599 26.6382 72.7075 26.5555 72.6733 26.4648C72.639 26.3742 72.6236 26.2774 72.6281 26.1806V9.63723C72.6281 9.17625 72.8684 8.9448 73.3529 8.9448H74.6216C75.1055 8.9448 75.3471 9.17561 75.3465 9.63723V26.1806C75.356 26.3731 75.2912 26.562 75.1655 26.7078C75.0944 26.7783 75.0091 26.8327 74.9152 26.8673C74.8214 26.9019 74.7213 26.916 74.6216 26.9085H73.3529C73.2563 26.9128 73.1598 26.8972 73.0694 26.8626C72.979 26.8281 72.8966 26.7754 72.8272 26.7078Z" fill="currentColor"/>
</svg>
