<svg xmlns="http://www.w3.org/2000/svg" fill="none" viewBox="0.68 0.68 12.65 12.65">
<path d="M6.77231 0.827396C6.83374 0.624811 7.16626 0.624811 7.22769 0.827396C7.5552 1.90743 8.2315 3.77695 9.22727 4.77273C10.223 5.7685 12.0926 6.4448 13.1726 6.77231C13.3752 6.83374 13.3752 7.16626 13.1726 7.22769C12.0926 7.5552 10.223 8.2315 9.22727 9.22727C8.2315 10.223 7.5552 12.0926 7.22769 13.1726C7.16626 13.3752 6.83374 13.3752 6.77231 13.1726C6.4448 12.0926 5.7685 10.223 4.77273 9.22727C3.77695 8.2315 1.90743 7.5552 0.827396 7.22769C0.624811 7.16626 0.624811 6.83374 0.827396 6.77231C1.90743 6.4448 3.77695 5.7685 4.77273 4.77273C5.7685 3.77695 6.4448 1.90743 6.77231 0.827396Z" fill="currentColor"/>
</svg>