<svg xmlns="http://www.w3.org/2000/svg" fill="none" viewBox="1.87 0.67 17.46 15.17">
<path d="M7.72224 2.61273C7.94226 2.00839 9.05774 2.00839 9.27776 2.61273C9.73051 3.85629 10.3766 5.25969 11.2045 6.13636C12.07 7.05272 13.479 7.75866 14.691 8.24034C15.2733 8.4718 15.2733 9.5282 14.691 9.75966C13.479 10.2413 12.07 10.9473 11.2045 11.8636C10.3766 12.7403 9.73051 14.1437 9.27776 15.3873C9.05774 15.9916 7.94226 15.9916 7.72224 15.3873C7.26949 14.1437 6.62342 12.7403 5.79545 11.8636C4.93 10.9473 3.52102 10.2413 2.30905 9.75966C1.72668 9.5282 1.72668 8.4718 2.30905 8.24034C3.52102 7.75866 4.93 7.05272 5.79545 6.13636C6.62342 5.25969 7.26949 3.85629 7.72224 2.61273Z" fill="currentColor"/>
<path d="M16.7452 0.819243C16.8197 0.6211 17.1803 0.6211 17.2548 0.819243C17.4154 1.24603 17.6501 1.74102 17.9545 2.04545C18.259 2.34989 18.754 2.58465 19.1808 2.74517C19.3789 2.8197 19.3789 3.1803 19.1808 3.25483C18.754 3.41535 18.259 3.65011 17.9545 3.95455C17.6501 4.25898 17.4154 4.75397 17.2548 5.18076C17.1803 5.3789 16.8197 5.3789 16.7452 5.18076C16.5846 4.75397 16.3499 4.25898 16.0455 3.95455C15.741 3.65011 15.246 3.41535 14.8192 3.25483C14.6211 3.1803 14.6211 2.8197 14.8192 2.74517C15.246 2.58465 15.741 2.34989 16.0455 2.04545C16.3499 1.74102 16.5846 1.24603 16.7452 0.819243Z" fill="currentColor"/>
</svg>