<svg width="20" height="20" viewBox="0 0 20 20" fill="none" xmlns="http://www.w3.org/2000/svg">
<g clip-path="url(#clip0_4575_8626)">
<circle cx="9.9999" cy="10.0001" r="10" transform="rotate(120 9.9999 10.0001)" fill="url(#paint0_radial_4575_8626)"/>
<path opacity="0.8" d="M17.9697 19.4434C18.164 20.2864 17.3968 21 16.4219 21H3.57809C2.60314 21 1.83599 20.2864 2.03027 19.4434C2.56664 17.1161 4.31837 13 10 13C15.6817 13 17.4335 17.1161 17.9697 19.4434Z" fill="white"/>
<path opacity="0.8" d="M10 11C12.2091 11 14 9.20914 14 7C14 4.79086 12.2091 3 10 3C7.79086 3 6 4.79086 6 7C6 9.20914 7.79086 11 10 11Z" fill="white"/>
</g>
<defs>
<radialGradient id="paint0_radial_4575_8626" cx="0" cy="0" r="1" gradientUnits="userSpaceOnUse" gradientTransform="translate(13.4999 4.0001) rotate(102.339) scale(16.3783)">
<stop stop-color="#CD5F5F"/>
<stop offset="1" stop-color="#E8D25E"/>
</radialGradient>
<clipPath id="clip0_4575_8626">
<rect width="20" height="20" rx="10" fill="white"/>
</clipPath>
</defs>
</svg>
